<svg width="336" height="41" viewBox="0 0 336 41" fill="none" xmlns="http://www.w3.org/2000/svg">
<path d="M15.1256 4.45C18.4696 4.45 20.9776 4.84267 22.6496 5.628C24.3216 6.388 25.1576 7.61667 25.1576 9.314C25.1576 10.986 24.6382 12.2653 23.5996 13.152C22.5862 14.0133 21.4209 14.444 20.1036 14.444C18.7862 14.444 17.5956 14.1147 16.5316 13.456C15.4929 12.772 14.7709 11.8727 14.3656 10.758C13.4282 10.758 12.5289 11.0747 11.6676 11.708C10.8316 12.316 10.2996 13.114 10.0716 14.102C15.0876 15.318 18.6849 16.7367 20.8636 18.358C23.0422 19.9793 24.1316 22.0567 24.1316 24.59C24.1316 27.1233 22.9789 29.15 20.6736 30.67C18.3936 32.19 15.3029 32.95 11.4016 32.95C7.52555 32.95 4.77689 32.418 3.15555 31.354C1.53422 30.29 0.723555 28.884 0.723555 27.136C0.723555 25.388 1.26822 23.7793 2.35755 22.31C2.88955 23.45 3.90289 24.476 5.39755 25.388C6.91756 26.3 8.41222 26.756 9.88156 26.756C12.5922 26.756 14.3149 25.8947 15.0496 24.172C10.8442 23.6147 7.63955 22.4493 5.43556 20.676C3.23155 18.8773 2.12955 16.7113 2.12955 14.178C2.12955 12.4807 2.58555 10.9733 3.49755 9.656C4.40955 8.31333 5.57489 7.28733 6.99355 6.578C9.78022 5.15933 12.4909 4.45 15.1256 4.45ZM69.1568 4.45C72.5008 4.45 75.0088 4.84267 76.6808 5.628C78.3528 6.388 79.1888 7.61667 79.1888 9.314C79.1888 10.986 78.6695 12.2653 77.6308 13.152C76.6175 14.0133 75.4521 14.444 74.1348 14.444C72.8175 14.444 71.6268 14.1147 70.5628 13.456C69.5241 12.772 68.8021 11.8727 68.3968 10.758C67.4595 10.758 66.5601 11.0747 65.6988 11.708C64.8628 12.316 64.3308 13.114 64.1028 14.102C69.1188 15.318 72.7161 16.7367 74.8948 18.358C77.0735 19.9793 78.1628 22.0567 78.1628 24.59C78.1628 27.1233 77.0101 29.15 74.7048 30.67C72.4248 32.19 69.3341 32.95 65.4328 32.95C61.5568 32.95 58.8081 32.418 57.1868 31.354C55.5655 30.29 54.7548 28.884 54.7548 27.136C54.7548 25.388 55.2995 23.7793 56.3888 22.31C56.9208 23.45 57.9341 24.476 59.4288 25.388C60.9488 26.3 62.4435 26.756 63.9128 26.756C66.6235 26.756 68.3461 25.8947 69.0808 24.172C64.8755 23.6147 61.6708 22.4493 59.4668 20.676C57.2628 18.8773 56.1608 16.7113 56.1608 14.178C56.1608 12.4807 56.6168 10.9733 57.5288 9.656C58.4408 8.31333 59.6061 7.28733 61.0248 6.578C63.8115 5.15933 66.5221 4.45 69.1568 4.45Z" fill="#A90000"/>
<path d="M41.7817 26.718L40.4517 22.88C39.1343 22.88 37.8043 22.6773 36.4617 22.272C36.183 23.8933 36.0437 25.0587 36.0437 25.768C36.0437 28.2253 36.4237 30.062 37.1837 31.278C35.6637 32.418 34.0803 32.988 32.4337 32.988C30.787 32.988 29.609 32.5193 28.8997 31.582C28.1903 30.6193 27.8357 29.2007 27.8357 27.326C27.8357 25.426 28.6337 20.068 30.2297 11.252L28.2157 7.186C31.053 5.362 33.6623 4.45 36.0437 4.45C37.8677 4.45 39.2737 4.83 40.2617 5.59C42.1617 4.83 43.8717 4.45 45.3917 4.45C47.7223 4.45 49.5717 5.23533 50.9397 6.806C52.3077 8.37667 52.9917 10.264 52.9917 12.468C52.9917 14.1147 52.5737 15.7107 51.7377 17.256C50.9017 18.776 49.673 20.0173 48.0517 20.98C48.913 23.4373 49.8757 25.5527 50.9397 27.326C52.029 29.0993 53.1057 30.2773 54.1697 30.86C53.6377 31.4173 52.8143 31.8987 51.6997 32.304C50.6103 32.7347 49.6223 32.95 48.7357 32.95C47.013 32.95 45.6323 32.5193 44.5937 31.658C43.555 30.7713 42.6177 29.1247 41.7817 26.718ZM38.1337 18.13C40.1603 18.13 41.731 17.6107 42.8457 16.572C43.9857 15.5333 44.5557 14.4187 44.5557 13.228C44.5557 12.0373 44.2263 11.0873 43.5677 10.378C42.909 9.66867 41.9717 9.314 40.7557 9.314C40.097 9.314 39.4383 9.40267 38.7797 9.58C37.969 14.4187 37.4623 17.256 37.2597 18.092C37.437 18.1173 37.7283 18.13 38.1337 18.13ZM122.557 32.988C120.911 32.988 119.733 32.5193 119.023 31.582C118.314 30.6193 117.959 29.2133 117.959 27.364C117.959 25.5147 118.555 21.2587 119.745 14.596H119.137C117.592 16.6227 116.313 19.042 115.299 21.854C114.286 24.666 113.665 27.1993 113.437 29.454C112.196 30.6193 110.765 31.202 109.143 31.202C108.485 31.202 107.902 30.974 107.395 30.518C106.914 30.0367 106.433 29.2133 105.951 28.048C105.014 25.692 104.343 21.208 103.937 14.596H103.329C102.088 20.0427 101.467 23.8807 101.467 26.11C101.467 28.3393 101.847 30.062 102.607 31.278C101.087 32.418 99.5042 32.988 97.8575 32.988C96.2108 32.988 95.0328 32.5193 94.3235 31.582C93.6142 30.6193 93.2595 29.2007 93.2595 27.326C93.2595 25.426 94.0575 20.068 95.6535 11.252L93.6395 7.186C96.5022 5.33667 99.1115 4.412 101.467 4.412C102.506 4.412 103.38 4.526 104.089 4.754C104.824 4.95667 105.521 5.362 106.179 5.97C106.863 6.578 107.421 7.42667 107.851 8.516C108.839 10.9733 109.549 14.558 109.979 19.27H110.435C111.753 15.394 113.577 12.0627 115.907 9.276C117.174 7.78133 118.681 6.60333 120.429 5.742C122.203 4.88067 124.115 4.45 126.167 4.45C128.118 4.45 129.093 5.628 129.093 7.984C129.093 8.76933 128.599 11.6953 127.611 16.762C126.649 21.8033 126.167 24.8053 126.167 25.768C126.167 28.2253 126.547 30.062 127.307 31.278C125.787 32.418 124.204 32.988 122.557 32.988ZM146.579 27.326L146.199 27.136C145.515 28.96 144.527 30.3913 143.235 31.43C141.968 32.4433 140.549 32.95 138.979 32.95C136.825 32.95 135.103 32.1393 133.811 30.518C132.519 28.8967 131.873 26.7307 131.873 24.02C131.873 19.8147 133.279 16.2933 136.091 13.456C138.928 10.6187 142.449 9.2 146.655 9.2C147.744 9.2 148.745 9.30133 149.657 9.504C149.809 10.2133 149.897 10.834 149.923 11.366C151.189 10.5553 152.494 10.15 153.837 10.15C155.686 10.15 156.611 11.1507 156.611 13.152C156.611 13.8613 156.205 16.002 155.395 19.574C154.609 23.146 154.217 25.7933 154.217 27.516C154.217 29.2387 154.609 30.4293 155.395 31.088C153.976 32.3293 152.494 32.95 150.949 32.95C149.429 32.95 148.314 32.494 147.605 31.582C146.921 30.67 146.579 29.2513 146.579 27.326ZM139.017 22.158C139.017 23.3993 139.27 24.362 139.777 25.046C140.309 25.7047 141.056 26.034 142.019 26.034C142.981 26.034 143.931 25.6793 144.869 24.97C145.806 24.2607 146.591 23.2853 147.225 22.044C147.453 19.4853 147.947 16.458 148.707 12.962C146.148 12.962 143.893 13.8867 141.943 15.736C139.992 17.5853 139.017 19.726 139.017 22.158ZM160.879 18.282C160.702 17.5727 160.613 16.914 160.613 16.306C160.613 15.0647 160.98 14.1273 161.715 13.494C162.45 12.8607 163.4 12.544 164.565 12.544C164.565 11.2267 164.223 9.79533 163.539 8.25C164.78 7.338 165.908 6.654 166.921 6.198C167.96 5.71667 169.049 5.476 170.189 5.476C171.329 5.476 172.114 5.69133 172.545 6.122C173.001 6.52733 173.229 7.16067 173.229 8.022C173.229 8.88333 173.052 10.226 172.697 12.05C173.71 11.898 174.736 11.6827 175.775 11.404C175.952 11.936 176.041 12.62 176.041 13.456C176.041 14.292 175.712 15.0773 175.053 15.812C174.42 16.5213 173.482 16.876 172.241 16.876H171.671C170.759 21.0053 170.303 24.1847 170.303 26.414C170.303 28.6433 170.696 30.2013 171.481 31.088C170.062 32.3293 168.555 32.95 166.959 32.95C165.363 32.95 164.21 32.4813 163.501 31.544C162.817 30.5813 162.475 29.0993 162.475 27.098C162.475 25.882 162.918 22.69 163.805 17.522C162.792 17.6993 161.816 17.9527 160.879 18.282ZM178.495 28.238C178.495 27.2247 178.749 25.2613 179.255 22.348C179.787 19.4347 180.332 16.7747 180.889 14.368L178.913 11.328C182.08 9.90933 184.297 9.2 185.563 9.2C186.855 9.2 187.501 10.0107 187.501 11.632C187.501 12.5187 187.083 14.368 186.247 17.18L186.627 17.37C188.451 11.9233 190.719 9.2 193.429 9.2C194.671 9.2 195.621 9.58 196.279 10.34C196.938 11.1 197.267 11.9487 197.267 12.886C197.267 14.2793 196.748 15.47 195.709 16.458C194.671 17.446 193.113 17.94 191.035 17.94C187.894 17.94 186.323 21.17 186.323 27.63C186.323 29.2007 186.589 30.3533 187.121 31.088C185.551 32.3293 184.107 32.95 182.789 32.95C179.927 32.95 178.495 31.3793 178.495 28.238ZM210.883 3.196C210.883 4.15867 210.376 4.99467 209.363 5.704C208.349 6.388 207.197 6.73 205.905 6.73C204.613 6.73 203.587 6.47667 202.827 5.97C202.092 5.46333 201.725 4.77933 201.725 3.918C201.725 2.75267 202.269 1.84067 203.359 1.182C204.448 0.523332 205.601 0.194 206.817 0.194C208.033 0.194 209.008 0.447333 209.743 0.953999C210.503 1.46066 210.883 2.208 210.883 3.196ZM203.473 32.95C201.902 32.95 200.762 32.5573 200.053 31.772C199.343 30.9867 198.989 29.796 198.989 28.2C198.989 26.5787 199.799 22.2593 201.421 15.242L199.293 12.05C202.459 10.15 204.955 9.2 206.779 9.2C207.817 9.2 208.552 9.428 208.983 9.884C209.413 10.3147 209.629 11.024 209.629 12.012C209.629 12.392 209.16 14.6213 208.223 18.7C207.285 22.7787 206.817 25.692 206.817 27.44C206.817 29.188 207.209 30.404 207.995 31.088C206.576 32.3293 205.069 32.95 203.473 32.95ZM237.585 15.964L237.965 16.154C240.676 11.518 243.994 9.2 247.921 9.2C250.986 9.2 252.519 10.7327 252.519 13.798C252.519 15.1153 252.139 17.3447 251.379 20.486C250.644 23.6273 250.277 25.996 250.277 27.592C250.277 29.188 250.543 30.3533 251.075 31.088C249.732 32.3293 248.314 32.95 246.819 32.95C243.906 32.95 242.449 31.3793 242.449 28.238C242.449 27.0727 242.829 25.0967 243.589 22.31C244.349 19.5233 244.729 17.712 244.729 16.876C244.729 15.736 244.298 15.166 243.437 15.166C242.728 15.166 241.93 15.4827 241.043 16.116C240.182 16.724 239.346 17.56 238.535 18.624C237.75 19.6627 237.078 20.9927 236.521 22.614C235.989 24.21 235.723 25.844 235.723 27.516C235.723 29.1627 235.989 30.3533 236.521 31.088C235.178 32.3293 233.76 32.95 232.265 32.95C229.352 32.95 227.895 31.3793 227.895 28.238C227.895 27.0727 228.275 25.0967 229.035 22.31C229.795 19.5233 230.175 17.712 230.175 16.876C230.175 15.736 229.744 15.166 228.883 15.166C228.174 15.166 227.376 15.4827 226.489 16.116C225.628 16.724 224.792 17.56 223.981 18.624C223.196 19.6627 222.524 20.9927 221.967 22.614C221.435 24.21 221.169 25.844 221.169 27.516C221.169 29.1627 221.435 30.3533 221.967 31.088C220.624 32.3293 219.206 32.95 217.711 32.95C214.798 32.95 213.341 31.3793 213.341 28.238C213.341 27.2247 213.594 25.2613 214.101 22.348C214.633 19.4347 215.178 16.7747 215.735 14.368L213.759 11.328C216.267 9.90933 218.585 9.2 220.713 9.2C222.841 9.2 223.905 10.1627 223.905 12.088C223.905 13.3547 223.614 14.6467 223.031 15.964L223.411 16.154C226.122 11.518 229.44 9.2 233.367 9.2C234.786 9.2 235.9 9.55467 236.711 10.264C237.547 10.9733 237.965 12.0373 237.965 13.456C237.965 14.216 237.838 15.052 237.585 15.964ZM274.668 12.088C276.086 12.088 277.302 12.658 278.316 13.798C279.354 14.938 279.874 16.5973 279.874 18.776C279.874 20.9293 279.494 22.9307 278.734 24.78C277.974 26.604 276.973 28.0987 275.732 29.264C274.49 30.4293 273.084 31.3413 271.514 32C269.943 32.6333 268.334 32.95 266.688 32.95C263.369 32.95 260.747 32.038 258.822 30.214C256.896 28.39 255.934 25.9707 255.934 22.956C255.934 18.8773 257.238 15.5713 259.848 13.038C262.482 10.4793 265.826 9.2 269.88 9.2C270.792 9.2 271.704 9.30133 272.616 9.504C272.894 10.34 273.046 11.29 273.072 12.354C273.604 12.1767 274.136 12.088 274.668 12.088ZM269.994 17.37C269.994 16.6607 270.158 15.8627 270.488 14.976C270.842 14.0893 271.4 13.38 272.16 12.848C268.816 13.5573 266.51 14.9127 265.244 16.914C264.154 18.6367 263.61 20.41 263.61 22.234C263.61 24.058 263.977 25.5273 264.712 26.642C265.472 27.7313 266.434 28.276 267.6 28.276C270.184 28.276 272.008 26.5913 273.072 23.222C271.02 21.9553 269.994 20.0047 269.994 17.37ZM287.848 32.95C286.353 32.95 285.251 32.5573 284.542 31.772C283.832 30.9867 283.478 29.948 283.478 28.656C283.478 27.364 283.731 25.2613 284.238 22.348C284.77 19.4347 285.314 16.7747 285.872 14.368L283.896 11.328C286.404 9.90933 288.722 9.2 290.85 9.2C292.978 9.2 294.042 10.1627 294.042 12.088C294.042 13.3547 293.75 14.6467 293.168 15.964L293.548 16.154C296.258 11.518 299.704 9.2 303.884 9.2C306.949 9.2 308.482 10.7327 308.482 13.798C308.482 15.1153 308.102 17.3447 307.342 20.486C306.607 23.6273 306.24 25.996 306.24 27.592C306.24 29.188 306.506 30.3533 307.038 31.088C305.695 32.3293 304.276 32.95 302.782 32.95C299.868 32.95 298.412 31.3793 298.412 28.238C298.412 27.0727 298.792 25.0967 299.552 22.31C300.312 19.5233 300.692 17.712 300.692 16.876C300.692 15.736 300.261 15.166 299.4 15.166C298.69 15.166 297.88 15.4827 296.968 16.116C296.056 16.724 295.169 17.56 294.308 18.624C293.472 19.6627 292.762 20.9927 292.18 22.614C291.597 24.21 291.306 25.844 291.306 27.516C291.306 29.1627 291.572 30.3533 292.104 31.088C290.761 32.3293 289.342 32.95 287.848 32.95ZM322.801 31.24C321.61 31.6707 320.419 31.886 319.229 31.886C318.038 31.886 317.037 31.5313 316.227 30.822C315.416 30.1127 314.947 29.15 314.821 27.934C314.694 26.718 314.58 24.9573 314.479 22.652C314.377 20.3213 314.276 18.6747 314.175 17.712C313.845 14.4947 312.832 12.202 311.135 10.834C312.325 9.74467 313.82 9.2 315.619 9.2C316.607 9.2 317.468 9.466 318.203 9.998C318.937 10.5047 319.52 11.1887 319.951 12.05C320.407 12.886 320.774 13.9753 321.053 15.318C321.483 17.5473 321.699 20.562 321.699 24.362C321.699 25.2993 321.661 26.4013 321.585 27.668H323.789C326.398 20.6253 327.703 15.8247 327.703 13.266C327.703 12.4047 327.513 11.594 327.133 10.834C328.906 9.74467 330.451 9.2 331.769 9.2C334.226 9.2 335.455 10.6187 335.455 13.456C335.455 15.7107 334.416 19.6753 332.339 25.35C331.959 26.3887 331.743 26.9967 331.693 27.174C328.475 36.3447 323.903 40.93 317.975 40.93C316.176 40.93 314.694 40.5373 313.529 39.752C312.363 38.992 311.781 37.9787 311.781 36.712C311.781 35.4707 312.249 34.166 313.187 32.798C314.403 34.5207 315.923 35.382 317.747 35.382C318.785 35.382 319.748 35.04 320.635 34.356C321.547 33.672 322.269 32.6333 322.801 31.24Z" fill="black"/>
</svg>